<svg xmlns="http://www.w3.org/2000/svg" viewBox="0 0 512 512">
  <rect x="0" y="0" width="512" height="512" rx="96" fill="#2C2E33"/>

  <g transform="translate(256,256) scale(1.18) translate(-252,-225)">
    <path fill="#1478D4" d="
      M266 78
      C 320 120, 336 160, 308 196
      C 336 182, 352 212, 352 248
      C 352 322, 300 372, 252 372
      C 196 372, 152 328, 152 264
      C 152 206, 184 166, 214 128
      C 200 156, 202 182, 222 196
      C 214 150, 228 108, 266 78 Z"/>

    <path fill="#8FE0FF" d="
      M256 182
      C 288 214, 300 240, 300 268
      C 300 310, 278 338, 252 338
      C 224 338, 202 310, 202 268
      C 202 240, 216 214, 256 182 Z"/>
  </g>
</svg>
